<?xml version="1.0" encoding="utf-8"?>
<!-- Generator: Adobe Illustrator 28.0.0, SVG Export Plug-In . SVG Version: 6.00 Build 0)  -->
<svg version="1.1" id="Capa_1" xmlns="http://www.w3.org/2000/svg" xmlns:xlink="http://www.w3.org/1999/xlink" x="0px" y="0px"
	 viewBox="0 0 161 58" style="enable-background:new 0 0 161 58;" xml:space="preserve">
<g transform="translate(0.000000,58.000000) scale(0.100000,-0.100000)">
	<path d="M1226.8,565c-82.3-30.1-140.5-86.3-178.7-172.7c-32.1-73.3-33.1-72.3,96.4-72.3h115.4v40.2c0,22.1,3,40.2,6,40.2
		c5,0,30.1-20.1,112.4-87.3c26.1-22.1,26.1-23.1,7-40.2c-39.2-35.1-113.4-93.4-119.5-93.4c-3,0-6,18.1-6,40.2v40.2h-115.4
		c-131.5,0-129.5,2-91.4-82.3c29.1-65.3,79.3-118.5,143.6-149.6c68.3-34.1,178.7-34.1,247,0c164.6,80.3,216.8,281.1,112.4,428.7
		C1481.7,560,1342.2,606.2,1226.8,565z"/>
	<path d="M170.7,511.8C45.2,478.7-21.1,370.3,6,241.8c13.1-62.2,52.2-113.4,113.4-145.6c58.2-30.1,182.7-30.1,250,0l47.2,22.1v95.4
		V310h-55.2h-55.2v-59.2c0-64.2-6-71.3-61.2-71.3c-48.2,0-85.3,25.1-103.4,71.3c-33.1,82.3,19.1,159.6,106.4,159.6
		c32.1,0,74.3-21.1,90.4-44.2c5-7,24.1,5,49.2,31.1c37.1,36.1,41.2,44.2,29.1,58.2C378.5,501.8,245.9,531.9,170.7,511.8z"/>
	<path d="M652.5,511.8c-201.8-53.2-234.9-319.2-52.2-414.6c32.1-17.1,60.2-22.1,117.5-22.1c95.4-1,160.6,29.1,205.8,93.4
		c28.1,39.2,30.1,50.2,30.1,126.5s-2,87.3-30.1,126.5c-18.1,25.1-50.2,53.2-77.3,67.3C796.1,514.8,703.7,525.9,652.5,511.8z
		 M790.1,381.3c30.1-27.1,33.1-35.1,33.1-86.3s-3-59.2-33.1-86.3c-74.3-66.3-178.7-12-176.7,91.4
		C616.4,397.4,719.8,444.6,790.1,381.3z"/>
</g>
</svg>
