<?xml version="1.0" standalone="no"?>
<!DOCTYPE svg PUBLIC "-//W3C//DTD SVG 20010904//EN"
 "http://www.w3.org/TR/2001/REC-SVG-20010904/DTD/svg10.dtd">
<svg version="1.0" xmlns="http://www.w3.org/2000/svg"
 width="161.000000pt" height="58.000000pt" viewBox="0 0 161.000000 58.000000"
 preserveAspectRatio="xMidYMid meet">

<g transform="translate(0.000000,58.000000) scale(0.100000,-0.100000)"
fill="#000000" stroke="none">
<path d="M1227 564 c-82 -30 -140 -86 -178 -172 -32 -73 -33 -72 96 -72 l115
0 0 40 c0 22 3 40 6 40 5 0 30 -20 112 -87 26 -22 26 -23 7 -40 -39 -35 -113
-93 -119 -93 -3 0 -6 18 -6 40 l0 40 -115 0 c-131 0 -129 2 -91 -82 29 -65 79
-118 143 -149 68 -34 178 -34 246 0 164 80 216 280 112 427 -74 103 -213 149
-328 108z"/>
<path d="M175 511 c-125 -33 -191 -141 -164 -269 13 -62 52 -113 113 -145 58
-30 182 -30 249 0 l47 22 0 95 0 96 -55 0 -55 0 0 -59 c0 -64 -6 -71 -61 -71
-48 0 -85 25 -103 71 -33 82 19 159 106 159 32 0 74 -21 90 -44 5 -7 24 5 49
31 37 36 41 44 29 58 -38 46 -170 76 -245 56z"/>
<path d="M655 511 c-201 -53 -234 -318 -52 -413 32 -17 60 -22 117 -22 95 -1
160 29 205 93 28 39 30 50 30 126 0 76 -2 87 -30 126 -18 25 -50 53 -77 67
-50 26 -142 37 -193 23z m137 -130 c30 -27 33 -35 33 -86 0 -51 -3 -59 -33
-86 -74 -66 -178 -12 -176 91 3 97 106 144 176 81z"/>
</g>
</svg>
