<svg width="417" height="93" viewBox="0 0 417 93" fill="none" xmlns="http://www.w3.org/2000/svg">
<path d="M10.7852 89.9668C10.6061 89.9668 10.3197 89.931 9.92578 89.8594C9.5319 89.8236 8.90527 89.3581 8.0459 88.4629C7.5804 88.069 6.86426 87.8721 5.89746 87.8721C4.93066 87.8721 3.99967 87.693 3.10449 87.335C3.17611 87.1201 3.21191 86.9053 3.21191 86.6904C3.21191 85.9027 2.639 84.9717 1.49316 83.8975C1.13509 83.4678 0.920247 83.0918 0.848633 82.7695V82.7158C0.848633 82.3936 1.11719 82.2324 1.6543 82.2324C3.1224 82.2324 4.25033 81.9997 5.03809 81.5342C5.79004 81.0329 6.41667 80.5137 6.91797 79.9766C7.41927 79.4036 7.95638 78.9023 8.5293 78.4727C8.70833 78.3652 8.85156 78.222 8.95898 78.043C9.74674 77.2552 10.1406 76.2526 10.1406 75.0352C10.1406 74.5697 10.0869 74.0684 9.97949 73.5312L8.79785 74.5518C8.43978 74.9098 8.26074 75.0889 8.26074 75.0889C8.22493 75.0889 8.18913 75.0889 8.15332 75.0889V74.9814C8.15332 74.9098 8.11751 74.8024 8.0459 74.6592C7.97428 74.4801 7.93848 74.3548 7.93848 74.2832C7.90267 74.2116 7.86686 74.14 7.83105 74.0684C7.79525 73.9609 7.72363 73.8714 7.61621 73.7998C6.79264 74.1221 6.0765 74.7845 5.46777 75.7871C4.85905 76.7897 4.1071 77.488 3.21191 77.8818C3.03288 77.7028 2.88965 77.5596 2.78223 77.4521C2.6748 77.3447 2.62109 77.2731 2.62109 77.2373C3.37305 75.4827 3.92806 73.6745 4.28613 71.8125C4.64421 69.9505 5.16341 68.1781 5.84375 66.4951C8.20703 61.3389 11.2148 54.2848 14.8672 45.333C18.5553 36.3812 21.4378 29.2555 23.5146 23.9561C23.8369 23.0251 24.1055 22.0762 24.3203 21.1094C24.571 19.5697 25.0902 18.1195 25.8779 16.7588C26.8089 15.04 28.832 13.2497 31.9473 11.3877C32.1263 11.2803 32.2516 11.1549 32.3232 11.0117C32.4307 10.8685 32.5202 10.7074 32.5918 10.5283C32.6276 10.4925 32.6455 10.4388 32.6455 10.3672C33.4333 8.9707 34.4001 7.68164 35.5459 6.5C37.0856 4.92448 38.2135 3.16992 38.9297 1.23633C38.9655 0.94987 39.0908 0.735026 39.3057 0.591797C39.5205 0.41276 39.986 0.323242 40.7021 0.323242C40.4873 1.50488 40.0934 2.59701 39.5205 3.59961C38.8402 4.70964 38.4284 5.90918 38.2852 7.19824C38.1419 8.4515 38.0703 9.31087 38.0703 9.77637C38.0703 11.4951 39.1624 12.9453 41.3467 14.127L41.4541 14.2344C41.4541 14.1986 41.4362 14.1628 41.4004 14.127H41.3467C41.4899 14.8431 41.5615 15.5592 41.5615 16.2754L41.5078 17.4033C41.2214 19.516 40.6842 21.557 39.8965 23.5264C39.1445 25.46 38.3031 27.3577 37.3721 29.2197C36.3337 31.3324 35.4027 33.4629 34.5791 35.6113C34.4359 36.041 34.3643 36.417 34.3643 36.7393C34.3643 36.8825 34.4001 37.0078 34.4717 37.1152C34.5433 37.1868 34.597 37.2585 34.6328 37.3301L34.5791 37.7598C34.3643 38.2969 34.2031 38.6191 34.0957 38.7266C33.9525 38.9772 33.863 39.2458 33.8271 39.5322V39.5859C33.8271 39.9082 34.0241 40.3021 34.418 40.7676C35.3848 39.6576 36.0472 38.7624 36.4053 38.082C36.7992 37.3659 37.1214 36.6676 37.3721 35.9873C37.6227 35.1637 38.1419 34.0179 38.9297 32.5498C38.8223 34.8057 38.5716 36.5602 38.1777 37.8135C37.8197 39.0309 37.3184 40.3021 36.6738 41.627L34.0957 47.2129C33.8451 49.7194 33.2184 52.1364 32.2158 54.4639L31.3027 57.042C30.1927 60.9092 28.5814 64.5436 26.4688 67.9453H26.415C26.3434 67.9453 26.2718 67.9453 26.2002 67.9453C26.1286 67.9095 26.0928 67.1217 26.0928 65.582C26.0928 64.3646 26.1465 63.1471 26.2539 61.9297C21.7064 70.416 18.9671 75.8229 18.0361 78.1504C19.0029 78.3294 19.8444 78.4189 20.5605 78.4189C21.599 78.4189 22.4583 78.3652 23.1387 78.2578L23.5146 78.2041C27.9189 77.5596 31.7145 77.0762 34.9014 76.7539C35.1878 76.7181 35.4922 76.6644 35.8145 76.5928C36.1725 76.4854 36.6022 76.4316 37.1035 76.4316C37.2109 76.4316 37.4616 76.4495 37.8555 76.4854C38.2493 76.5212 38.9476 76.915 39.9502 77.667C40.3799 77.9176 40.8454 78.043 41.3467 78.043C42.0628 78.043 42.7432 77.9714 43.3877 77.8281C44.2471 77.6491 45.1064 77.5596 45.9658 77.5596C46.0732 77.7028 46.127 77.8102 46.127 77.8818C46.127 78.0251 45.9479 78.1683 45.5898 78.3115C45.2676 78.4189 45.1064 78.5264 45.1064 78.6338C45.1064 78.7054 45.1602 78.7949 45.2676 78.9023C45.6257 79.2604 46.0016 79.4574 46.3955 79.4932H47.6309C47.8815 79.4574 48.1501 79.4395 48.4365 79.4395C49.654 79.4395 50.6745 79.2246 51.498 78.7949C52.071 78.3294 52.9303 78.0967 54.0762 78.0967C54.7565 78.0967 55.5443 78.1862 56.4395 78.3652C56.4036 78.7233 56.2425 79.0098 55.9561 79.2246C55.7054 79.4036 55.401 79.5648 55.043 79.708C54.6849 79.8512 54.3984 80.0124 54.1836 80.1914C53.9688 80.3704 53.6644 80.4779 53.2705 80.5137C52.9124 80.5495 52.5007 80.5674 52.0352 80.5674L51.4443 80.5137C50.943 80.5137 50.4775 80.5853 50.0479 80.7285C49.6182 80.8717 49.4033 81.2298 49.4033 81.8027V82.1787C49.4033 82.5368 48.8662 82.8411 47.792 83.0918C47.2549 83.235 46.7536 83.432 46.2881 83.6826C45.8584 83.8975 45.6436 84.2376 45.6436 84.7031C45.6436 84.8105 45.5719 84.8822 45.4287 84.918C45.0706 85.0612 44.641 85.1328 44.1396 85.1328C36.6559 85.7415 29.4945 86.6904 22.6553 87.9795C19.3968 88.5524 16.1204 89.0716 12.8262 89.5371L12.0205 89.752C11.6266 89.8952 11.2148 89.9668 10.7852 89.9668ZM36.6738 22.667C38.1419 20.9124 38.876 18.8535 38.876 16.4902V16.0068C38.0882 16.6514 37.569 17.4033 37.3184 18.2627C37.1035 19.0863 36.9603 19.9456 36.8887 20.8408C36.8529 21.4495 36.7812 22.0583 36.6738 22.667ZM25.9316 39.21L26.0928 38.8877C26.6299 38.0641 26.8984 37.3301 26.8984 36.6855C26.8984 36.2559 26.791 35.8083 26.5762 35.3428L25.8779 36.7393L25.9316 39.21ZM14.2764 68.6973L15.5654 66.334C15.8877 63.3978 16.5143 60.569 17.4453 57.8477C18.4121 55.0905 19.4684 52.3512 20.6143 49.6299C21.9391 46.5146 23.1208 43.3457 24.1592 40.123C22.9775 42.4147 21.6706 44.957 20.2383 47.75C18.8418 50.5072 17.6243 53.0137 16.5859 55.2695C15.5475 57.4896 15.0104 58.904 14.9746 59.5127C14.151 59.9782 13.5065 60.569 13.041 61.2852C12.8262 61.6074 12.7188 61.9118 12.7188 62.1982C12.7188 62.5205 12.8441 62.8249 13.0947 63.1113C13.8109 63.8275 14.1689 64.4362 14.1689 64.9375C14.1689 65.0807 14.1331 65.2419 14.0615 65.4209C14.0257 65.5999 13.9362 65.7969 13.793 66.0117C13.6497 66.1908 13.5423 66.3698 13.4707 66.5488C13.3275 66.7995 13.2559 67.0501 13.2559 67.3008C13.2559 67.3366 13.2738 67.4619 13.3096 67.6768C13.3454 67.8558 13.6676 68.196 14.2764 68.6973ZM54.5059 74.1221L52.1963 74.0684C51.0146 74.0684 49.8688 73.6745 48.7588 72.8867L49.7256 72.833C50.3343 72.833 50.9072 72.8867 51.4443 72.9941C51.9814 73.0658 52.4648 73.1016 52.8945 73.1016C53.8255 73.1016 54.6133 72.9404 55.2578 72.6182C54.8639 72.2243 54.3984 71.9557 53.8613 71.8125C53.3242 71.6693 52.7692 71.5618 52.1963 71.4902L51.1221 71.3291L50.5312 71.2217C48.347 70.8994 46.3597 70.3265 44.5693 69.5029L44.4082 69.3955C43.4414 69.0016 42.958 68.6436 42.958 68.3213L43.0117 67.2471C43.0117 65.7432 42.7074 64.293 42.0986 62.8965C41.4541 61.4642 41.1318 60.014 41.1318 58.5459C41.1318 58.1162 41.1497 57.7044 41.1855 57.3105L41.9912 53.7656L42.4746 51.5098C42.6536 50.9727 42.7432 50.6325 42.7432 50.4893L42.6895 50.167C42.224 48.4124 41.9912 47.2129 41.9912 46.5684C41.9912 46.3177 42.027 46.0492 42.0986 45.7627C42.1344 45.4404 42.2956 44.957 42.582 44.3125L42.6357 44.2051C43.5667 41.8418 44.444 39.4785 45.2676 37.1152C45.3392 37.0078 45.3929 36.8825 45.4287 36.7393C45.6077 36.2021 45.8584 35.6829 46.1807 35.1816C47.04 33.2839 48.1501 31.4577 49.5107 29.7031C50.9072 27.9128 52.3574 26.194 53.8613 24.5469C54.4342 23.9382 54.9893 23.3115 55.5264 22.667H55.5801V22.7207C53.8971 25.263 52.7513 27.9486 52.1426 30.7773L52.25 30.5088C53.3958 28.2171 54.7386 26.1761 56.2783 24.3857C57.818 22.5596 59.9128 20.9661 62.5625 19.6055C65.5345 17.9941 68.7572 17.1885 72.2305 17.1885C73.3763 17.1885 74.5579 17.278 75.7754 17.457C76.8138 17.6003 77.8701 17.6719 78.9443 17.6719C82.0238 17.6719 84.7988 18.012 87.2695 18.6924C89.3464 19.2653 90.9219 20.4111 91.9961 22.1299C92.3542 22.7028 92.8376 23.222 93.4463 23.6875L93.6611 23.8486C93.0166 21.6644 91.6201 19.8919 89.4717 18.5312C87.3232 17.1348 84.2259 16.2754 80.1797 15.9531C81.3255 15.8815 82.4176 15.8457 83.4561 15.8457C88.2184 15.8457 91.8887 16.902 94.4668 19.0146C97.2598 21.3421 98.6562 24.8691 98.6562 29.5957C98.6562 33.2839 97.9759 37.151 96.6152 41.1973C97.3672 39.6576 98.2087 38.1178 99.1396 36.5781C99.1755 36.5423 99.2292 36.5244 99.3008 36.5244C99.4082 36.5244 99.4619 36.5781 99.4619 36.6855C98.71 38.5833 98.1729 40.7139 97.8506 43.0771C97.5283 45.4046 96.9196 47.6784 96.0244 49.8984C95.165 52.1185 93.5 53.9089 91.0293 55.2695L90.5996 55.3232L90.2236 55.2695C86.7503 60.9987 84.2617 63.8633 82.7578 63.8633L82.2207 63.8096C80.502 65.5999 78.5505 67.2829 76.3662 68.8584C75.292 69.6462 74.0924 70.3265 72.7676 70.8994C67.0026 73.0479 60.9154 74.1221 54.5059 74.1221ZM63.6904 66.2266C64.0485 66.2266 64.4424 66.1908 64.8721 66.1191C65.3376 66.0475 65.8568 65.9759 66.4297 65.9043C67.6471 65.7969 68.7751 65.582 69.8135 65.2598C70.8519 64.9375 71.5322 64.3109 71.8545 63.3799C70.458 64.3109 68.793 64.9375 66.8594 65.2598L65.7852 65.3135C64.0664 65.3135 62.097 64.5257 59.877 62.9502L59.7695 62.8428C61.5241 63.7021 63.1354 64.1318 64.6035 64.1318C67.5755 64.1318 70.4222 62.431 73.1436 59.0293C74.8623 56.8809 76.4199 54.625 77.8164 52.2617C79.7142 49.0391 81.5225 46.6937 83.2412 45.2256H83.2949C84.0827 43.3278 84.6198 41.4121 84.9062 39.4785C84.9779 39.013 85.0137 38.5475 85.0137 38.082C85.0137 36.6497 84.7093 35.1816 84.1006 33.6777V33.3018C84.1364 33.2301 84.208 33.1406 84.3154 33.0332C84.4229 32.89 84.5482 32.6214 84.6914 32.2275V32.0664C84.3691 31.0638 83.8857 30.0612 83.2412 29.0586L83.1875 28.9512L82.5967 28.0381C79.7321 26.3193 77.4225 25.46 75.668 25.46C75.0592 25.46 74.4326 25.5316 73.7881 25.6748C71.389 26.3551 69.3301 27.501 67.6113 29.1123C67.7546 29.6852 67.8262 30.0254 67.8262 30.1328C67.8262 30.3477 67.7008 30.5267 67.4502 30.6699C66.0179 31.7799 64.9079 32.9795 64.1201 34.2686C63.3324 35.5218 62.3118 36.6676 61.0586 37.7061C61.0944 37.7061 61.1123 37.724 61.1123 37.7598C61.1123 37.7598 61.1302 37.7777 61.166 37.8135L61.0049 37.7598L61.0586 37.6523V37.5986C59.0534 41.0003 57.9613 44.5094 57.7822 48.126C57.7822 48.2334 57.7106 48.2871 57.5674 48.2871C57.5316 48.2871 57.4779 48.2871 57.4062 48.2871C57.3346 48.2871 57.2809 48.2513 57.2451 48.1797C56.7796 46.7116 56.5469 44.957 56.5469 42.916C55.2936 47.3919 54.6312 51.9215 54.5596 56.5049C54.5596 57.221 54.6849 57.7939 54.9355 58.2236C55.1504 56.7913 55.5443 55.377 56.1172 53.9805C56.3678 53.3001 56.6006 52.584 56.8154 51.832H56.9229V51.8857C56.8512 52.5661 56.8154 53.2285 56.8154 53.873C56.8154 56.1647 57.1914 58.4206 57.9434 60.6406C59.2324 64.3646 61.1481 66.2266 63.6904 66.2266ZM49.9941 67.8916C49.6719 66.9606 49.099 66.2087 48.2754 65.6357C47.4518 65.0628 46.6283 64.5973 45.8047 64.2393L45.4824 64.0781C45.9121 65.1165 46.4313 65.9401 47.04 66.5488C47.6846 67.1576 48.6693 67.6051 49.9941 67.8916ZM91.4053 33.5166C91.5485 33.1585 91.6201 32.8363 91.6201 32.5498C91.6201 32.0485 91.4053 31.4577 90.9756 30.7773C91.1904 31.8874 91.3337 32.8005 91.4053 33.5166ZM76.7959 58.9756C77.1898 58.5817 77.5658 58.152 77.9238 57.6865C78.7832 56.6481 79.75 55.6634 80.8242 54.7324C81.0391 54.5534 81.1465 54.3564 81.1465 54.1416C81.1465 54.07 81.1644 53.9626 81.2002 53.8193C81.236 53.6761 81.5583 53.4076 82.167 53.0137C82.9189 52.5124 83.2949 52.1006 83.2949 51.7783C83.2949 51.5277 83.1517 51.2591 82.8652 50.9727C82.5072 51.1875 82.2207 51.4382 82.0059 51.7246C81.791 51.9753 81.5941 52.2617 81.415 52.584C81.2718 52.8704 81.1823 53.1748 81.1465 53.4971C81.1107 53.7835 81.0928 53.9984 81.0928 54.1416C81.0928 54.2848 81.0391 54.3564 80.9316 54.3564L80.2871 54.3027C79.2129 55.9857 78.0492 57.5433 76.7959 58.9756ZM78.2461 81.5879C73.8418 81.5879 69.7598 81.1403 66 80.2451V80.1914H66.752C74.8086 80.1914 82.4714 79.0635 89.7402 76.8076C91.6738 76.1631 93.5716 75.429 95.4336 74.6055C97.1165 73.8893 98.8353 73.209 100.59 72.5645C97.0807 73.4596 93.5179 74.14 89.9014 74.6055C89.5433 74.6055 89.3643 74.498 89.3643 74.2832C89.3643 74.2116 89.4359 74.14 89.5791 74.0684C92.9808 72.6361 96.6152 71.347 100.482 70.2012C102.81 69.0553 104.564 68.0348 105.746 67.1396C108.253 65.4925 110.294 63.5768 111.869 61.3926C112.621 60.3184 113.069 59.1546 113.212 57.9014C113.284 57.7223 113.409 57.6328 113.588 57.6328C113.839 57.6328 113.964 57.7223 113.964 57.9014C113.749 60.014 112.764 61.9834 111.01 63.8096C115.235 60.6943 117.348 57.8298 117.348 55.2158C117.348 54.3564 117.097 53.3538 116.596 52.208V52.1543C116.309 51.9036 115.987 51.653 115.629 51.4023C112.621 49.3255 110.168 47.3919 108.271 45.6016C105.943 43.3099 104.779 41.0361 104.779 38.7803C104.779 35.486 107.16 32.335 111.923 29.3271L112.514 28.4678L112.299 28.5752C108.79 30.0433 106.176 31.7799 104.457 33.7852C103.204 35.1816 102.577 36.793 102.577 38.6191C102.577 39.3711 102.685 40.1589 102.899 40.9824C102.899 41.1257 102.846 41.1794 102.738 41.1436C102.595 41.1436 102.488 41.1257 102.416 41.0898C101.736 39.6934 101.396 38.3506 101.396 37.0615C101.396 34.2327 103.043 31.6188 106.337 29.2197C108.163 27.859 110.544 26.4089 113.48 24.8691C116.452 23.2936 119.407 22.2015 122.343 21.5928C126.854 20.2679 130.131 19.3369 132.172 18.7998L133.192 18.4775C133.515 18.4775 133.676 18.5671 133.676 18.7461C133.676 18.8177 133.64 18.8893 133.568 18.9609C135.538 18.5312 137.507 18.1374 139.477 17.7793L144.364 16.8125C144.615 16.8125 144.74 16.8841 144.74 17.0273C144.74 17.099 144.687 17.1527 144.579 17.1885C142.359 18.012 140.175 18.8714 138.026 19.7666H139.799L141.518 19.2832C147.139 17.4212 153.048 16.168 159.242 15.5234C159.35 15.5234 159.421 15.5592 159.457 15.6309C159.529 15.6667 159.564 15.7204 159.564 15.792C159.564 15.8636 159.511 15.9173 159.403 15.9531C156.933 16.7051 154.551 17.5645 152.26 18.5312C152.331 18.5671 152.385 18.6208 152.421 18.6924V18.7461L152.367 18.8535C151.007 19.5339 149.932 20.2321 149.145 20.9482C148.393 21.6644 147.623 22.488 146.835 23.4189L145.761 24.708C144.901 25.5316 143.093 26.2477 140.336 26.8564C138.116 27.4652 135.09 28.6647 131.259 30.4551C129.647 31.207 128.036 31.9232 126.425 32.6035C125.172 33.3913 123.954 34.1969 122.772 35.0205L122.826 35.1816L122.772 35.2891C121.519 36.0052 120.606 37.2585 120.033 39.0488C120.105 38.9414 120.194 38.8519 120.302 38.7803C120.302 38.6729 120.32 38.5833 120.355 38.5117C120.427 38.4401 120.481 38.3506 120.517 38.2432C120.982 37.9925 121.358 37.7061 121.645 37.3838L122.343 36.793C126.854 33.3197 131.832 30.7773 137.274 29.166L137.382 29.1123C137.418 29.1123 137.453 29.1302 137.489 29.166C137.525 29.166 137.543 29.1839 137.543 29.2197C137.543 29.2555 137.507 29.2913 137.436 29.3271C134.607 30.3298 131.921 31.5472 129.379 32.9795C126.12 34.8057 123.757 36.8825 122.289 39.21C121.967 39.9261 121.806 40.6423 121.806 41.3584C121.806 43.1488 122.826 44.9033 124.867 46.6221C125.261 47.016 125.619 47.4098 125.941 47.8037C126.299 48.1976 126.675 48.5736 127.069 48.9316C129.218 50.8294 130.632 52.7988 131.312 54.8398V54.1416C131.312 52.8167 131.062 51.4202 130.561 49.9521L130.614 49.8447C130.757 49.8447 130.847 49.8626 130.883 49.8984C132.387 52.3691 133.139 54.8577 133.139 57.3643C133.139 59.5127 132.584 61.6611 131.474 63.8096C130.435 65.7432 128.591 67.5693 125.941 69.2881L125.78 69.3955C125.53 69.682 125.261 69.9505 124.975 70.2012C124.975 70.3444 124.885 70.5055 124.706 70.6846C123.811 71.4723 122.808 72.2064 121.698 72.8867C120.23 73.7103 118.637 74.4801 116.918 75.1963C115.665 75.9124 114.358 76.5749 112.997 77.1836L112.675 77.2373C112.46 77.2373 112.317 77.1299 112.245 76.915L109.989 77.7207C108.808 78.3652 107.447 78.9023 105.907 79.332L103.49 79.9766C100.447 80.9434 98.6742 81.4268 98.1729 81.4268C97.7074 81.4268 97.3851 81.373 97.2061 81.2656C95.5231 80.6211 93.7148 80.2988 91.7812 80.2988C90.7428 80.5137 89.7044 80.6927 88.666 80.8359C88.2363 80.9434 87.8245 81.0866 87.4307 81.2656H87.2158C86.9652 81.2656 86.8398 81.194 86.8398 81.0508C83.8678 81.4089 81.0033 81.5879 78.2461 81.5879ZM107.948 40.6602V35.8799C107.125 36.5602 106.713 37.2227 106.713 37.8672C106.713 38.5475 107.053 39.3353 107.733 40.2305L107.948 40.6602ZM119.12 36.6855C119.836 35.8262 120.642 35.0563 121.537 34.376L120.946 34.5371C120.159 35.0742 119.657 35.4502 119.442 35.665C119.228 35.8799 119.12 36.1484 119.12 36.4707V36.6855ZM142.699 22.7744L143.773 22.1299L142.27 22.7207L142.699 22.7744ZM137.973 92.4912C137.328 92.3838 137.006 92.2048 137.006 91.9541L137.328 91.417C138.402 89.555 138.975 87.6572 139.047 85.7236C139.154 84.4346 139.405 83.1813 139.799 81.9639C140.085 81.2477 140.229 80.5316 140.229 79.8154C140.229 78.7054 139.853 77.6133 139.101 76.5391C138.707 77.2552 138.384 78.043 138.134 78.9023C137.991 79.3678 137.919 79.7617 137.919 80.084C137.919 80.4062 137.973 80.6748 138.08 80.8896L138.134 80.9971C138.134 81.0687 138.098 81.1403 138.026 81.2119C137.919 81.2835 137.794 81.3193 137.65 81.3193C137.471 81.3193 137.328 81.2656 137.221 81.1582C136.218 79.9049 135.717 78.5085 135.717 76.9688C135.717 75.2858 136.039 73.388 136.684 71.2754L137.06 70.04C137.418 68.4645 138.313 65.4925 139.745 61.124C141.177 56.7555 142.771 52.4408 144.525 48.1797C146.316 43.8828 147.891 41.0719 149.252 39.7471C149.467 38.8161 149.807 37.903 150.272 37.0078C150.738 36.1126 151.078 35.2174 151.293 34.3223L151.562 33.1406C151.776 32.4603 151.884 31.7799 151.884 31.0996C151.884 30.8132 151.866 30.5446 151.83 30.2939C151.794 30.0433 151.776 29.8464 151.776 29.7031C151.776 29.166 151.955 28.6289 152.313 28.0918C153.137 27.0176 153.692 26.1761 153.979 25.5674C154.301 24.9229 154.534 24.2783 154.677 23.6338C154.856 22.9893 155.214 22.0762 155.751 20.8945C156.825 18.4954 158.168 16.1501 159.779 13.8584C159.206 13.7152 158.651 13.6436 158.114 13.6436C157.72 13.6436 157.309 13.6973 156.879 13.8047C156.449 13.8763 155.966 13.9121 155.429 13.9121L154.623 13.8584C155.268 13.3213 156.485 12.9632 158.275 12.7842C159.564 12.7126 160.621 12.444 161.444 11.9785C159.905 12.1217 158.365 12.2113 156.825 12.2471C155.858 12.2829 154.91 12.3366 153.979 12.4082C152.582 12.623 151.221 12.7305 149.896 12.7305L148.178 12.6768L137.812 12.8379C137.632 12.8379 137.543 12.7842 137.543 12.6768C137.543 12.641 137.543 12.6051 137.543 12.5693C137.543 12.5335 139.101 12.1396 142.216 11.3877H139.53C135.878 11.3877 132.226 11.334 128.573 11.2266C125.816 11.1549 123.095 11.1191 120.409 11.1191C117.724 11.1191 115.092 11.1549 112.514 11.2266C112.37 11.2266 112.299 11.1908 112.299 11.1191C112.299 11.0117 112.335 10.958 112.406 10.958C119.066 9.48991 126.192 8.23665 133.783 7.19824C137.113 5.40788 140.73 3.88607 144.633 2.63281C144.848 2.5612 145.08 2.52539 145.331 2.52539C146.011 2.52539 146.566 2.68652 146.996 3.00879C148.357 3.90397 149.789 4.35156 151.293 4.35156H151.776C153.173 4.35156 154.587 4.20833 156.02 3.92188C157.81 3.63542 159.278 3.49219 160.424 3.49219C161.534 3.49219 162.59 3.67122 163.593 4.0293C163.987 4.17253 164.237 4.38737 164.345 4.67383L165.902 4.56641C172.419 3.99349 178.99 3.70703 185.614 3.70703H186.796C189.016 3.70703 191.236 3.5638 193.456 3.27734C197.144 2.81185 201.155 2.5791 205.487 2.5791C208.316 2.5791 211.145 2.68652 213.974 2.90137C211.216 3.18783 209.319 3.33105 208.28 3.33105C208.638 3.58171 208.943 3.86816 209.193 4.19043C210.16 5.26465 211.789 5.89128 214.081 6.07031C215.513 6.17773 216.91 6.23145 218.271 6.23145C219.058 6.23145 219.846 6.21354 220.634 6.17773C221.422 6.14193 222.102 6.12402 222.675 6.12402C222.782 6.12402 222.854 6.15983 222.89 6.23145C222.925 6.26725 222.943 6.30306 222.943 6.33887C222.908 6.41048 222.836 6.46419 222.729 6.5C221.26 6.67904 219.685 6.94759 218.002 7.30566C214.672 8.05762 212.058 8.43359 210.16 8.43359C209.516 8.43359 208.889 8.39779 208.28 8.32617C204.556 8.57682 200.832 9.11393 197.108 9.9375L193.51 10.582L194.315 10.6357H194.53C195.103 10.6357 195.604 10.7432 196.034 10.958C192.74 11.6742 189.392 12.0322 185.99 12.0322L183.788 12.0859C182.141 12.0859 180.995 12.1038 180.351 12.1396C179.742 12.1755 179.258 12.3366 178.9 12.623L178.471 12.8916C177.396 15.6846 176.179 17.9225 174.818 19.6055C173.744 21.0378 172.67 22.8639 171.596 25.084L169.984 28.5752C167.836 33.0511 165.902 37.5628 164.184 42.1104C164.184 42.1462 164.166 42.1641 164.13 42.1641C164.022 42.1641 163.969 42.1283 163.969 42.0566C164.076 40.1589 164.273 38.279 164.56 36.417C163.557 37.8493 162.357 40.6602 160.961 44.8496C159.564 49.0033 158.096 53.5866 156.557 58.5996C154.981 63.7917 153.495 68.4466 152.099 72.5645C150.702 76.6465 149.556 79.153 148.661 80.084C148.303 80.4062 148.106 80.7464 148.07 81.1045C147.676 83.2529 145.976 85.4372 142.968 87.6572C142.646 87.4782 142.484 87.2992 142.484 87.1201C142.484 86.9769 142.646 86.762 142.968 86.4756C143.29 86.1533 143.451 85.9206 143.451 85.7773C143.451 85.6341 143.344 85.473 143.129 85.2939C142.126 85.6162 141.446 86.028 141.088 86.5293C140.73 86.9948 140.479 87.4961 140.336 88.0332C140.264 88.2839 140.175 88.5524 140.067 88.8389C139.96 89.0895 139.87 89.376 139.799 89.6982C139.691 90.1995 139.512 90.6829 139.262 91.1484C139.011 91.6139 138.581 92.0615 137.973 92.4912ZM152.582 61.5L155.805 55.2158C155.84 54.7145 155.912 54.2132 156.02 53.7119C155.16 54.4639 154.426 55.5918 153.817 57.0957C153.209 58.5638 152.797 60.0319 152.582 61.5ZM150.81 67.8379C151.669 66.2982 152.26 64.7585 152.582 63.2188C151.902 64.7227 151.293 66.2445 150.756 67.7842L150.81 67.8379ZM143.612 6.33887L145.062 6.28516C144.883 6.17773 144.704 6.12402 144.525 6.12402L143.612 6.33887ZM166.654 92.4912C166.01 92.3838 165.688 92.2048 165.688 91.9541L166.01 91.417C167.084 89.555 167.657 87.6572 167.729 85.7236C167.836 84.4346 168.087 83.1813 168.48 81.9639C168.767 81.2477 168.91 80.5316 168.91 79.8154C168.91 78.7054 168.534 77.6133 167.782 76.5391C167.388 77.2552 167.066 78.043 166.815 78.9023C166.672 79.3678 166.601 79.7617 166.601 80.084C166.601 80.4062 166.654 80.6748 166.762 80.8896L166.815 80.9971C166.815 81.0687 166.78 81.1403 166.708 81.2119C166.601 81.2835 166.475 81.3193 166.332 81.3193C166.153 81.3193 166.01 81.2656 165.902 81.1582C164.9 79.9049 164.398 78.5085 164.398 76.9688C164.398 75.2858 164.721 73.388 165.365 71.2754L165.741 70.04C166.099 68.4645 166.994 65.4925 168.427 61.124C169.859 56.7555 171.452 52.4408 173.207 48.1797C174.997 43.8828 176.573 41.0719 177.934 39.7471C178.148 38.8161 178.489 37.903 178.954 37.0078C179.42 36.1126 179.76 35.2174 179.975 34.3223L180.243 33.1406C180.458 32.4603 180.565 31.7799 180.565 31.0996C180.565 30.8132 180.548 30.5446 180.512 30.2939C180.476 30.0433 180.458 29.8464 180.458 29.7031C180.458 29.166 180.637 28.6289 180.995 28.0918C181.819 27.0176 182.374 26.1761 182.66 25.5674C182.982 24.9229 183.215 24.2783 183.358 23.6338C183.537 22.9893 183.896 22.0762 184.433 20.8945C185.507 18.4954 186.85 16.1501 188.461 13.8584C187.888 13.7152 187.333 13.6436 186.796 13.6436C186.402 13.6436 185.99 13.6973 185.561 13.8047C185.131 13.8763 184.647 13.9121 184.11 13.9121L183.305 13.8584C183.949 13.3213 185.167 12.9632 186.957 12.7842C188.246 12.7126 189.302 12.444 190.126 11.9785C188.586 12.1217 187.047 12.2113 185.507 12.2471C184.54 12.2829 183.591 12.3366 182.66 12.4082C181.264 12.623 179.903 12.7305 178.578 12.7305L176.859 12.6768L166.493 12.8379C166.314 12.8379 166.225 12.7842 166.225 12.6768C166.225 12.641 166.225 12.6051 166.225 12.5693C166.225 12.5335 167.782 12.1396 170.897 11.3877H168.212C164.56 11.3877 160.907 11.334 157.255 11.2266C154.498 11.1549 151.776 11.1191 149.091 11.1191C146.405 11.1191 143.773 11.1549 141.195 11.2266C141.052 11.2266 140.98 11.1908 140.98 11.1191C140.98 11.0117 141.016 10.958 141.088 10.958C147.748 9.48991 154.874 8.23665 162.465 7.19824C165.795 5.40788 169.411 3.88607 173.314 2.63281C173.529 2.5612 173.762 2.52539 174.013 2.52539C174.693 2.52539 175.248 2.68652 175.678 3.00879C177.038 3.90397 178.471 4.35156 179.975 4.35156H180.458C181.854 4.35156 183.269 4.20833 184.701 3.92188C186.492 3.63542 187.96 3.49219 189.105 3.49219C190.215 3.49219 191.272 3.67122 192.274 4.0293C192.668 4.17253 192.919 4.38737 193.026 4.67383L194.584 4.56641C201.101 3.99349 207.672 3.70703 214.296 3.70703H215.478C217.698 3.70703 219.918 3.5638 222.138 3.27734C225.826 2.81185 229.836 2.5791 234.169 2.5791C236.998 2.5791 239.826 2.68652 242.655 2.90137C239.898 3.18783 238 3.33105 236.962 3.33105C237.32 3.58171 237.624 3.86816 237.875 4.19043C238.842 5.26465 240.471 5.89128 242.763 6.07031C244.195 6.17773 245.591 6.23145 246.952 6.23145C247.74 6.23145 248.528 6.21354 249.315 6.17773C250.103 6.14193 250.784 6.12402 251.356 6.12402C251.464 6.12402 251.535 6.15983 251.571 6.23145C251.607 6.26725 251.625 6.30306 251.625 6.33887C251.589 6.41048 251.518 6.46419 251.41 6.5C249.942 6.67904 248.367 6.94759 246.684 7.30566C243.354 8.05762 240.74 8.43359 238.842 8.43359C238.197 8.43359 237.571 8.39779 236.962 8.32617C233.238 8.57682 229.514 9.11393 225.79 9.9375L222.191 10.582L222.997 10.6357H223.212C223.785 10.6357 224.286 10.7432 224.716 10.958C221.422 11.6742 218.074 12.0322 214.672 12.0322L212.47 12.0859C210.823 12.0859 209.677 12.1038 209.032 12.1396C208.424 12.1755 207.94 12.3366 207.582 12.623L207.152 12.8916C206.078 15.6846 204.861 17.9225 203.5 19.6055C202.426 21.0378 201.352 22.8639 200.277 25.084L198.666 28.5752C196.518 33.0511 194.584 37.5628 192.865 42.1104C192.865 42.1462 192.847 42.1641 192.812 42.1641C192.704 42.1641 192.65 42.1283 192.65 42.0566C192.758 40.1589 192.955 38.279 193.241 36.417C192.239 37.8493 191.039 40.6602 189.643 44.8496C188.246 49.0033 186.778 53.5866 185.238 58.5996C183.663 63.7917 182.177 68.4466 180.78 72.5645C179.384 76.6465 178.238 79.153 177.343 80.084C176.985 80.4062 176.788 80.7464 176.752 81.1045C176.358 83.2529 174.657 85.4372 171.649 87.6572C171.327 87.4782 171.166 87.2992 171.166 87.1201C171.166 86.9769 171.327 86.762 171.649 86.4756C171.972 86.1533 172.133 85.9206 172.133 85.7773C172.133 85.6341 172.025 85.473 171.811 85.2939C170.808 85.6162 170.128 86.028 169.77 86.5293C169.411 86.9948 169.161 87.4961 169.018 88.0332C168.946 88.2839 168.856 88.5524 168.749 88.8389C168.642 89.0895 168.552 89.376 168.48 89.6982C168.373 90.1995 168.194 90.6829 167.943 91.1484C167.693 91.6139 167.263 92.0615 166.654 92.4912ZM181.264 61.5L184.486 55.2158C184.522 54.7145 184.594 54.2132 184.701 53.7119C183.842 54.4639 183.108 55.5918 182.499 57.0957C181.89 58.5638 181.479 60.0319 181.264 61.5ZM179.491 67.8379C180.351 66.2982 180.941 64.7585 181.264 63.2188C180.583 64.7227 179.975 66.2445 179.438 67.7842L179.491 67.8379ZM172.294 6.33887L173.744 6.28516C173.565 6.17773 173.386 6.12402 173.207 6.12402L172.294 6.33887ZM191.469 83.5752C191.039 82.1071 190.824 80.639 190.824 79.1709C190.824 77.4521 191.111 75.7513 191.684 74.0684C191.755 73.7819 191.791 73.4238 191.791 72.9941C191.397 73.6029 190.896 74.1937 190.287 74.7666H190.18C190.036 74.7666 189.929 74.7487 189.857 74.7129C189.141 74.1042 188.783 73.4417 188.783 72.7256C188.783 71.8304 189.213 70.8278 190.072 69.7178C190.502 69.1807 190.932 68.5719 191.361 67.8916C191.755 65.6357 192.418 63.4336 193.349 61.2852C194.28 59.1009 195.3 56.9525 196.41 54.8398C198.057 51.6888 200.456 46.4072 203.607 38.9951C204.503 36.8825 205.416 34.7878 206.347 32.7109C206.884 31.3145 207.743 30.1865 208.925 29.3271C208.925 29.9717 208.782 30.5446 208.495 31.0459C208.244 31.5472 207.94 32.0485 207.582 32.5498C207.367 32.8005 207.17 33.069 206.991 33.3555C207.421 33.4271 207.797 33.4629 208.119 33.4629C208.477 33.4629 208.853 33.4092 209.247 33.3018C209.677 33.1585 209.963 32.9437 210.106 32.6572C210.572 31.6904 211.306 30.9027 212.309 30.2939C213.311 29.6494 214.385 29.0765 215.531 28.5752C216.283 28.2529 216.999 27.9128 217.68 27.5547C218.074 27.7695 218.288 28.0023 218.324 28.2529C218.324 28.5752 218.306 28.8258 218.271 29.0049C218.235 29.1839 218.217 29.4525 218.217 29.8105C218.217 29.9538 218.396 30.1149 218.754 30.2939C219.47 30.0791 220.061 29.5778 220.526 28.79C220.992 28.0023 221.636 27.501 222.46 27.2861C222.675 27.3577 222.8 27.4652 222.836 27.6084C222.872 27.7158 222.89 27.8411 222.89 27.9844V28.3604C223.677 29.8285 224.071 30.8311 224.071 31.3682C224.071 31.6546 223.982 32.0127 223.803 32.4424C223.66 32.8363 223.266 33.4987 222.621 34.4297C221.296 36.3991 220.025 38.458 218.808 40.6064L218.539 41.0898C218.109 41.627 217.895 42.1462 217.895 42.6475C217.895 42.9339 218.002 43.2562 218.217 43.6143C220.437 43.5426 222.46 43.292 224.286 42.8623L226.273 42.1104C228.529 41.3226 230.552 40.3379 232.343 39.1562C235.351 36.8646 237.034 34.1432 237.392 30.9922C237.213 30.276 236.908 29.6136 236.479 29.0049C235.583 27.5726 234.509 26.3372 233.256 25.2988C232.003 24.2604 230.338 23.5264 228.261 23.0967C228.153 23.0609 227.956 23.043 227.67 23.043V22.9893C228.995 22.9893 230.123 23.0788 231.054 23.2578C234.169 23.5085 236.854 24.3678 239.11 25.8359C239.289 25.5853 239.379 25.3346 239.379 25.084C239.379 24.9766 239.343 24.8154 239.271 24.6006C239.236 24.3857 238.878 24.1351 238.197 23.8486C235.977 22.7386 233.292 21.9867 230.141 21.5928C229.424 21.5212 228.726 21.4854 228.046 21.4854C227.187 21.4854 226.327 21.5391 225.468 21.6465C225.074 21.7181 224.662 21.7718 224.232 21.8076C222.191 21.9508 220.329 22.3984 218.646 23.1504C218.217 23.3652 217.823 23.4727 217.465 23.4727C216.999 23.4727 216.426 23.2757 215.746 22.8818C215.102 22.488 214.457 22.291 213.812 22.291C213.49 22.291 213.132 22.3268 212.738 22.3984C211.807 22.6133 210.84 22.7565 209.838 22.8281C208.334 23.0788 206.902 23.3473 205.541 23.6338C203.07 24.1709 200.6 24.6722 198.129 25.1377C195.049 25.7106 192.006 26.3551 188.998 27.0713C188.962 27.0713 188.926 27.0713 188.891 27.0713C188.855 27.0355 188.837 26.9997 188.837 26.9639C188.837 26.9281 188.855 26.9102 188.891 26.9102C191.146 25.9434 193.51 24.8512 195.98 23.6338C198.129 22.5596 200.349 21.5033 202.641 20.4648C203.07 19.6771 203.786 19.14 204.789 18.8535C205.827 18.5312 206.955 18.2985 208.173 18.1553L209.247 17.9941C210.572 17.5645 212.112 17.1706 213.866 16.8125C214.726 16.6693 215.513 16.4544 216.229 16.168C216.015 15.8457 215.674 15.6846 215.209 15.6846C215.102 15.6846 214.976 15.7025 214.833 15.7383C214.69 15.7741 214.582 15.792 214.511 15.792C214.475 15.792 213.419 16.0068 211.342 16.4365V16.3291L213.49 15.5771L213.383 15.5234C213.383 15.3444 213.526 15.2012 213.812 15.0938C214.314 14.9505 214.726 14.8789 215.048 14.8789L215.854 14.7178C218.217 13.8942 220.67 13.2497 223.212 12.7842C224.573 12.5335 225.933 12.4082 227.294 12.4082C228.404 12.4082 229.514 12.4977 230.624 12.6768C235.888 12.82 240.632 14.0016 244.857 16.2217C246.863 17.2243 248.42 18.4417 249.53 19.874C250.676 21.2705 251.661 22.7386 252.484 24.2783C252.699 24.6364 252.86 25.0124 252.968 25.4062L253.129 25.8359C253.201 25.4421 253.236 25.0303 253.236 24.6006C253.236 23.598 253.004 22.5238 252.538 21.3779C252.073 20.2321 251.034 19.0684 249.423 17.8867V17.833C249.423 17.7972 249.423 17.7793 249.423 17.7793C249.423 17.7435 249.441 17.7077 249.477 17.6719H249.53L249.638 17.7256C252.037 19.1579 253.738 20.8408 254.74 22.7744C254.776 22.5596 254.83 22.3626 254.901 22.1836C255.761 23.0072 256.19 23.7949 256.19 24.5469C256.19 24.7617 256.155 24.9766 256.083 25.1914C256.047 25.3704 256.011 25.5495 255.976 25.7285C255.976 25.8717 255.958 25.9792 255.922 26.0508C256.101 26.946 256.19 27.877 256.19 28.8438C256.19 32.2454 255.098 35.6113 252.914 38.9414C251.267 41.4837 248.993 43.2025 246.093 44.0977H245.824C245.359 44.0977 245.001 43.9365 244.75 43.6143C242.351 45.6553 239.504 47.4814 236.21 49.0928L236.156 49.1465C239.2 48.6094 242.082 47.6426 244.804 46.2461L244.911 46.1924C244.947 46.1924 244.983 46.2103 245.019 46.2461C245.09 46.2461 245.126 46.2819 245.126 46.3535L245.072 46.4609C241.026 48.9316 236.711 51.0443 232.128 52.7988C233.524 53.9089 234.348 54.9294 234.599 55.8604C234.706 56.2542 234.76 56.6839 234.76 57.1494C234.76 57.5791 234.796 57.9193 234.867 58.1699C235.118 58.707 236.335 59.2979 238.52 59.9424C238.985 60.014 239.379 60.2109 239.701 60.5332C240.99 61.8223 242.279 63.1829 243.568 64.6152C244.714 65.9043 245.287 66.8174 245.287 67.3545C245.287 67.7484 244.911 67.9453 244.159 67.9453H243.837C243.944 68.8047 244.105 69.4492 244.32 69.8789C244.571 70.2728 245.09 70.6309 245.878 70.9531C246.701 71.2396 248.026 71.6156 249.853 72.0811C244.911 71.6872 240.149 70.8815 235.565 69.6641C234.993 69.4492 233.829 68.4824 232.074 66.7637C231.036 65.6895 230.194 64.9375 229.55 64.5078L229.979 65.0986C231.054 66.4951 232.2 67.82 233.417 69.0732C233.453 69.0732 233.471 69.0911 233.471 69.127V69.1807C233.435 69.2165 233.399 69.2344 233.363 69.2344C233.327 69.2344 233.292 69.2344 233.256 69.2344L231.107 67.999C228.995 66.889 227.133 65.4925 225.521 63.8096L225.038 63.2725C224.823 63.2367 224.644 63.165 224.501 63.0576C224.215 62.8786 223.57 62.1266 222.567 60.8018C222.317 60.4079 222.191 59.9782 222.191 59.5127C222.191 59.0472 222.156 58.707 222.084 58.4922C222.012 58.2773 221.798 58.0983 221.439 57.9551C221.117 57.776 220.58 57.6507 219.828 57.5791C219.577 57.5791 219.345 57.4717 219.13 57.2568C218.951 57.0062 218.808 56.7734 218.7 56.5586C217.769 54.5176 215.746 53.4971 212.631 53.4971C212.344 53.4971 212.147 53.4792 212.04 53.4434H211.933C211.933 53.4076 211.933 53.3896 211.933 53.3896C211.968 53.3896 212.04 53.3896 212.147 53.3896C212.291 53.3538 213.043 53.1927 214.403 52.9062L215.639 52.6377C215.281 51.7783 214.743 51.3486 214.027 51.3486C213.633 51.3486 213.168 51.4919 212.631 51.7783C212.309 51.9932 211.986 52.4408 211.664 53.1211C211.628 53.2643 211.575 53.3717 211.503 53.4434C211.467 53.515 211.396 53.6045 211.288 53.7119C208.173 57.4359 206.168 61.3747 205.272 65.5283C204.413 68.7868 203.482 72.2064 202.479 75.7871C202.265 75.4648 202.157 75.1605 202.157 74.874C202.157 74.5876 202.229 74.2474 202.372 73.8535C202.551 73.4596 202.641 73.1016 202.641 72.7793C202.605 72.457 202.336 72.1348 201.835 71.8125C200.618 73.2448 199.239 74.6234 197.699 75.9482C196.374 77.0941 195.139 78.2936 193.993 79.5469C192.847 80.7643 192.006 82.1071 191.469 83.5752ZM229.496 49.2002C230.821 49.2002 231.931 48.9854 232.826 48.5557C233.721 48.0902 234.617 47.4098 235.512 46.5146C232.683 47.5173 230.266 48.3945 228.261 49.1465L229.496 49.2002ZM282.992 84.8643C282.562 82.5368 282.24 80.2272 282.025 77.9355C281.811 75.6081 281.488 73.2985 281.059 71.0068C280.02 72.2601 279.25 73.5671 278.749 74.9277C278.677 74.9993 278.588 75.0173 278.48 74.9814C278.445 74.9814 278.391 74.9814 278.319 74.9814C278.284 74.9814 278.266 74.9635 278.266 74.9277C278.015 73.9609 277.818 72.9404 277.675 71.8662C277.245 71.723 277.03 71.4902 277.03 71.168C277.03 71.0605 277.066 70.9352 277.138 70.792C277.317 70.3981 277.478 69.9863 277.621 69.5566C277.693 69.0553 277.836 68.5361 278.051 67.999C278.266 67.4261 278.48 66.2087 278.695 64.3467C278.839 63.0934 279.071 61.8044 279.394 60.4795C279.716 59.1546 280.092 57.8118 280.521 56.4512C281.094 54.625 281.578 52.7988 281.972 50.9727C282.079 50.6146 282.133 50.2923 282.133 50.0059C282.133 49.4688 281.972 49.1286 281.649 48.9854C281.363 48.8063 280.915 48.7168 280.307 48.7168C279.734 48.7168 278.982 48.7884 278.051 48.9316C276.117 49.1823 274.685 49.4329 273.754 49.6836C272.859 49.8984 272.143 50.2565 271.605 50.7578C271.068 51.2233 270.406 51.9932 269.618 53.0674L269.511 53.1748C267.577 55.8604 264.301 60.0677 259.682 65.7969C258.858 66.7279 257.927 67.641 256.889 68.5361C255.85 69.3955 254.901 70.3265 254.042 71.3291C253.791 71.6514 253.183 71.8125 252.216 71.8125C251.643 71.8125 251.07 71.8841 250.497 72.0273C250.855 71.4186 251.034 70.7383 251.034 69.9863C247.812 72.6003 244.267 74.9814 240.399 77.1299H240.238V77.0762C241.957 75.25 243.425 73.3522 244.643 71.3828C245.43 70.2012 246.272 69.0374 247.167 67.8916C247.06 67.7842 247.006 67.6947 247.006 67.623C247.006 67.4798 247.095 67.265 247.274 66.9785C247.418 66.8353 247.507 66.71 247.543 66.6025C248.152 65.7074 248.456 65.0091 248.456 64.5078C248.456 64.0781 248.277 63.5947 247.919 63.0576C247.74 62.807 247.65 62.5384 247.65 62.252C247.65 61.7148 248.062 60.9629 248.886 59.9961L249.101 59.7275C250.604 57.9014 252.162 56.0752 253.773 54.249L253.935 54.0342C254.722 53.2822 255.295 52.387 255.653 51.3486C251.679 50.8473 249.441 50.543 248.939 50.4355L249.53 48.7168C247.561 48.6094 245.627 48.4661 243.729 48.2871L239.218 48.0186L239.164 47.9111H239.218C240.937 47.6605 242.637 47.3561 244.32 46.998C246.576 46.1745 248.993 45.709 251.571 45.6016C253.147 45.4583 254.687 45.1361 256.19 44.6348L257.694 44.2051C257.336 44.2051 256.996 44.1872 256.674 44.1514C254.74 44.0081 253.773 43.9007 253.773 43.8291C253.773 43.7933 253.827 43.7575 253.935 43.7217C255.689 43.5785 257.408 43.3636 259.091 43.0771C260.451 42.8623 261.812 42.6833 263.173 42.54C263.244 42.5042 263.352 42.4863 263.495 42.4863C263.889 42.1999 264.229 41.8418 264.516 41.4121C266.951 37.8314 269.493 34.2865 272.143 30.7773C273.109 29.4883 274.058 28.1813 274.989 26.8564C275.562 25.8896 276.189 24.9408 276.869 24.0098C277.37 23.2936 277.925 22.4521 278.534 21.4854C279.465 19.8024 280.736 18.2806 282.348 16.9199C283.064 16.3112 283.726 15.6846 284.335 15.04C284.944 14.3597 285.32 13.6257 285.463 12.8379C285.499 12.8021 285.552 12.7842 285.624 12.7842C285.66 12.7842 285.678 12.8021 285.678 12.8379C285.678 14.9505 285.391 17.0632 284.818 19.1758C285.427 18.6387 286.072 18.1195 286.752 17.6182C287.969 16.902 289.366 16.5439 290.941 16.5439C292.947 16.5439 293.949 16.8483 293.949 17.457L293.896 17.833C293.896 18.2985 294.11 18.6566 294.54 18.9072C295.006 19.1221 295.614 19.3011 296.366 19.4443L297.064 19.6055C298.21 19.8919 299.034 20.1426 299.535 20.3574C300.036 20.5723 300.341 20.8587 300.448 21.2168C300.52 21.4316 300.556 21.7181 300.556 22.0762L300.502 22.9893C300.001 31.2249 298.765 39.4427 296.796 47.6426C298.801 42.1641 300.287 36.6676 301.254 31.1533C301.254 31.1175 301.29 31.0817 301.361 31.0459H301.522L301.576 31.1533C301.361 34.8057 301.039 38.4222 300.609 42.0029C300.215 45.5837 299.535 49.1823 298.568 52.7988C297.995 54.9473 297.476 57.1673 297.011 59.459C296.545 62.0013 295.954 64.5257 295.238 67.0322C294.558 69.5387 293.573 71.9378 292.284 74.2295C292.213 74.3727 292.069 74.4801 291.854 74.5518H291.21C290.888 74.4801 290.691 73.7103 290.619 72.2422C290.261 72.8867 290.082 73.5492 290.082 74.2295C290.082 74.5518 289.706 74.9277 288.954 75.3574C288.31 75.6439 287.898 75.984 287.719 76.3779C287.432 76.9867 287.11 77.5954 286.752 78.2041C286.072 79.3499 285.57 80.5316 285.248 81.749L285.141 82.0176C285.105 82.4473 284.944 82.8949 284.657 83.3604C284.407 83.8258 283.852 84.3271 282.992 84.8643ZM283.314 42.0566C283.708 42.0566 284.156 42.0387 284.657 42.0029C285.159 41.9313 285.552 41.609 285.839 41.0361C287.092 38.5296 287.719 36.5423 287.719 35.0742C287.719 34.6087 287.683 34.1432 287.611 33.6777C286.107 34.6445 284.962 35.665 284.174 36.7393C283.493 37.6344 282.67 38.4401 281.703 39.1562L281.488 39.2637C281.381 39.2637 281.327 38.9235 281.327 38.2432C281.327 38.0283 281.327 37.903 281.327 37.8672C281.363 37.7956 281.452 37.6882 281.596 37.5449C282.562 37.3301 283.046 36.8467 283.046 36.0947V35.7725C282.222 36.3096 281.721 36.8288 281.542 37.3301C281.47 37.5807 281.363 37.7777 281.22 37.9209H281.166C280.88 38.0999 280.611 38.2969 280.36 38.5117L280.199 38.6191C279.949 38.8698 279.823 39.0488 279.823 39.1562C279.823 39.2279 279.913 39.2995 280.092 39.3711H280.199C280.342 39.3711 280.504 39.3532 280.683 39.3174C280.862 39.2458 281.059 39.21 281.273 39.21C281.452 39.2458 281.542 39.3353 281.542 39.4785C281.542 39.765 281.345 40.1051 280.951 40.499C280.593 40.8571 280.414 41.1973 280.414 41.5195C280.414 41.627 280.45 41.7702 280.521 41.9492C281.238 41.9492 281.793 41.9671 282.187 42.0029C282.58 42.0387 282.956 42.0566 283.314 42.0566ZM334.931 77.7744H334.286C329.201 77.7744 324.797 76.6465 321.073 74.3906C320.93 74.3906 320.84 74.4085 320.805 74.4443V74.3906H320.858V74.2295H320.805V74.2832H320.858C320.858 74.319 320.84 74.3369 320.805 74.3369V74.3906C318.477 73.9609 316.651 73.012 315.326 71.5439C311.137 67.2471 308.165 62.5563 306.41 57.4717L306.303 57.0957C306.231 56.7734 306.106 56.4691 305.927 56.1826C305.712 55.8604 305.336 55.6276 304.799 55.4844C304.512 55.7708 304.333 56.0931 304.262 56.4512C304.154 56.8092 304.101 57.221 304.101 57.6865C304.101 58.152 304.029 58.707 303.886 59.3516C303.671 58.2057 303.563 57.1315 303.563 56.1289C303.563 55.4128 303.653 54.4997 303.832 53.3896C304.011 52.2438 304.405 50.9189 305.014 49.415C305.587 47.8753 306.106 46.3535 306.571 44.8496C307.216 42.5221 308.039 40.2305 309.042 37.9746C310.725 34.752 313.196 31.9948 316.454 29.7031C317.779 28.7363 319.068 27.7337 320.321 26.6953C321.61 25.6569 322.935 24.6364 324.296 23.6338C328.378 20.805 332.961 18.585 338.046 16.9736C338.332 16.902 338.655 16.8662 339.013 16.8662H339.926C339.353 17.4033 338.583 17.7972 337.616 18.0479C337.007 18.2269 336.399 18.4596 335.79 18.7461C335.217 19.0326 334.716 19.4622 334.286 20.0352C335.539 19.6413 336.739 19.319 337.885 19.0684C340.105 18.6387 342.074 17.9404 343.793 16.9736C344.617 16.9736 345.386 16.8304 346.103 16.5439C346.711 16.4007 347.087 16.3291 347.23 16.3291C347.302 16.3291 347.427 16.347 347.606 16.3828C347.821 16.3828 347.982 16.4544 348.09 16.5977C348.233 16.7409 348.305 16.8483 348.305 16.9199C348.305 17.0273 348.126 17.2064 347.768 17.457C347.445 17.6719 347.284 17.9046 347.284 18.1553V18.2627C347.965 18.1553 348.645 18.1016 349.325 18.1016L350.346 18.1553C352.637 17.7614 355.001 17.5645 357.436 17.5645C358.939 17.5645 361.124 17.7077 363.988 17.9941C366.853 18.2806 369.896 18.7819 373.119 19.498C373.227 19.498 373.28 19.516 373.28 19.5518C373.316 19.5876 373.334 19.6234 373.334 19.6592C373.334 19.7666 373.244 19.8203 373.065 19.8203L369.413 19.7666C366.262 19.7666 363.129 19.9277 360.014 20.25L358.725 20.3574L358.51 20.5186C359.835 20.5186 361.106 20.4469 362.323 20.3037H362.431C362.646 20.3037 362.753 20.3753 362.753 20.5186C362.753 20.5544 362.699 20.5902 362.592 20.626C361.446 20.9482 360.39 21.3421 359.423 21.8076C358.85 22.0583 358.259 22.291 357.65 22.5059C357.65 22.7923 357.471 22.9355 357.113 22.9355L356.522 22.8818C356.451 22.8818 356.379 22.8997 356.308 22.9355C356.272 22.9355 356.218 22.9535 356.146 22.9893C353.568 23.6696 350.954 24.3141 348.305 24.9229L344.438 25.8359C344.831 25.9076 345.225 25.9434 345.619 25.9434C346.335 25.9434 347.034 25.8359 347.714 25.6211C348.215 25.4062 348.77 25.2988 349.379 25.2988C350.596 25.2988 351.402 25.818 351.796 26.8564C343.882 28.1813 337.187 30.5267 331.708 33.8926C326.265 37.2585 322.112 41.9134 319.247 47.8574C320.715 46.8906 321.7 45.9775 322.201 45.1182C323.204 43.0413 324.761 41.1077 326.874 39.3174C328.987 37.527 331.26 36.0947 333.695 35.0205L333.91 34.9668C334.018 34.9668 334.089 35.0205 334.125 35.1279C334.125 35.1995 334.107 35.2533 334.071 35.2891C330.741 38.0462 328.414 40.8929 327.089 43.8291C325.764 46.7653 324.779 49.9163 324.135 53.2822C324.135 53.3538 324.027 53.3896 323.812 53.3896C323.705 53.3896 323.633 53.3717 323.598 53.3359C322.738 52.4766 322.147 51.5814 321.825 50.6504C321.575 51.5814 321.449 52.5482 321.449 53.5508C321.449 54.625 321.592 55.735 321.879 56.8809C322.165 56.7018 322.416 56.3438 322.631 55.8066C322.738 55.4844 322.899 55.1979 323.114 54.9473C323.365 54.6608 323.795 54.4818 324.403 54.4102C323.795 55.4486 323.49 56.4154 323.49 57.3105C323.49 59.0293 324.958 61.0345 327.895 63.3262L328.109 63.541C330.329 65.2956 332.639 66.1729 335.038 66.1729C337.079 66.1729 339.174 65.5283 341.322 64.2393C342.003 63.7738 342.629 63.2546 343.202 62.6816C343.739 62.0013 344.348 61.6611 345.028 61.6611L345.673 61.7148C347.356 60.3542 348.77 58.9577 349.916 57.5254C351.205 55.9141 352.834 54.4102 354.804 53.0137L355.019 52.96C355.09 52.96 355.198 52.96 355.341 52.96C355.484 52.96 355.556 53.0495 355.556 53.2285L355.502 53.3359C354.499 54.7682 353.819 56.2721 353.461 57.8477C353.174 59.0293 352.727 60.2109 352.118 61.3926C352.297 61.4642 352.387 61.5716 352.387 61.7148C352.387 61.8223 352.351 61.9476 352.279 62.0908C352.064 62.4847 351.832 62.8428 351.581 63.165C351.116 63.738 350.811 64.3646 350.668 65.0449C352.566 63.5768 353.747 61.876 354.213 59.9424C354.249 59.8708 354.285 59.835 354.32 59.835C354.392 59.7992 354.446 59.7812 354.481 59.7812C354.589 59.7812 354.643 59.835 354.643 59.9424C354.428 61.3031 353.909 62.8965 353.085 64.7227C352.297 66.513 351.133 68.1602 349.594 69.6641C348.054 71.168 346.103 72.1706 343.739 72.6719C340.767 74.1042 337.616 74.9635 334.286 75.25H335.629C338.35 75.25 341.269 74.9814 344.384 74.4443C344.634 74.4443 344.76 74.498 344.76 74.6055L344.706 74.7129C342.235 76.6465 338.977 77.667 334.931 77.7744ZM354.32 85.6699C354.105 85.6699 353.998 85.5983 353.998 85.4551C354.571 83.0202 355.072 80.5495 355.502 78.043C355.932 75.2142 356.487 72.4212 357.167 69.6641L357.436 67.6768C356.863 68.3213 356.451 69.0016 356.2 69.7178C355.914 70.5771 355.359 71.3828 354.535 72.1348V71.6514C354.535 71.1143 354.66 70.5951 354.911 70.0938C355.126 69.5924 355.412 69.109 355.771 68.6436C355.914 68.4287 356.057 68.2318 356.2 68.0527C356.343 67.8379 356.415 67.623 356.415 67.4082C356.415 67.0859 356.2 66.7816 355.771 66.4951C355.556 66.3877 355.448 66.2982 355.448 66.2266C355.448 66.1908 355.52 66.1729 355.663 66.1729C355.771 66.137 355.878 66.1191 355.985 66.1191C356.988 65.8685 357.489 65.582 357.489 65.2598C357.489 65.1165 357.346 64.9554 357.06 64.7764C356.773 64.5973 356.415 64.5078 355.985 64.5078C355.341 64.5078 355.019 64.7227 355.019 65.1523C355.019 65.3672 355.09 65.5999 355.233 65.8506L355.395 66.2266L355.072 66.2803C354.678 66.3877 354.481 66.6562 354.481 67.0859C354.446 67.265 354.392 67.444 354.32 67.623C354.213 67.7663 353.962 67.8558 353.568 67.8916C353.139 67.7126 352.924 67.5156 352.924 67.3008L352.978 67.0859C353.873 64.6868 354.714 62.2878 355.502 59.8887C357.113 54.8398 359.065 49.8805 361.356 45.0107C362.61 42.3252 363.684 39.6038 364.579 36.8467C364.937 35.7367 365.313 34.6445 365.707 33.5703L365.976 32.8721C366.155 32.1917 366.423 31.5293 366.781 30.8848C367.175 30.2402 367.784 29.6673 368.607 29.166C369.001 28.9154 369.288 28.611 369.467 28.2529C369.646 27.8949 369.789 27.5726 369.896 27.2861C370.004 26.9639 370.093 26.6953 370.165 26.4805C371.239 24.2246 373.119 21.3063 375.805 17.7256C373.943 19.0863 372.313 20.626 370.917 22.3447C370.845 22.4163 370.756 22.4521 370.648 22.4521C370.434 22.4521 370.326 22.3626 370.326 22.1836V22.0762C371.293 19.319 372.815 16.8483 374.892 14.6641L375.912 13.5898C376.771 12.6947 377.702 11.8353 378.705 11.0117C379.743 10.1523 380.889 9.57943 382.143 9.29297C383.109 7.93229 384.398 6.62533 386.01 5.37207C386.081 5.30046 386.153 5.26465 386.225 5.26465C386.332 5.26465 386.404 5.30046 386.439 5.37207C386.511 5.40788 386.547 5.44368 386.547 5.47949V5.5332C385.688 7.03711 385.168 9.36458 384.989 12.5156C385.132 12.265 385.831 10.9222 387.084 8.4873C388.337 6.05241 389.519 3.5638 390.629 1.02148C390.629 0.94987 390.665 0.914062 390.736 0.914062C390.844 0.914062 390.897 0.967773 390.897 1.0752C390.647 2.0778 390.521 3.0625 390.521 4.0293C390.521 4.49479 390.539 4.96029 390.575 5.42578C390.647 5.85547 390.683 6.28516 390.683 6.71484C390.683 8.79167 390.092 11.1012 388.91 13.6436L388.642 15.1475C388.427 17.5465 387.854 19.874 386.923 22.1299C386.887 22.2731 386.798 22.488 386.654 22.7744C386.511 23.5622 386.225 24.4036 385.795 25.2988L384.936 27.1787C384.47 28.2887 383.951 29.4167 383.378 30.5625L383.271 30.9385C382.268 34.734 380.889 38.4938 379.135 42.2178C382.286 41.2868 384.757 39.7829 386.547 37.7061C388.337 35.5934 390.199 33.4629 392.133 31.3145V31.1533L392.187 30.9385C393.189 29.3988 394.389 27.9307 395.785 26.5342C396.931 25.3883 397.951 24.2246 398.847 23.043C399.205 22.5417 399.581 22.0583 399.975 21.5928C400.082 20.9124 400.333 20.1963 400.727 19.4443L401.103 20.25L405.292 15.6846C405.328 15.6488 405.382 15.6309 405.453 15.6309C405.596 15.6667 405.668 15.7383 405.668 15.8457C404.665 17.6003 403.896 19.498 403.358 21.5391C403.215 22.112 403.054 22.667 402.875 23.2041C403.161 23.4189 403.52 23.598 403.949 23.7412C405.883 20.2321 407.96 17.0632 410.18 14.2344L412.489 11.1191C412.489 11.0833 412.507 11.0654 412.543 11.0654L412.597 11.1191C412.131 12.7663 411.737 14.485 411.415 16.2754L411.2 17.2422L411.684 17.1348C411.612 17.8509 411.111 18.6029 410.18 19.3906C409.392 19.9993 408.909 20.626 408.729 21.2705L409.105 21.2168C409.32 21.2168 409.535 21.2705 409.75 21.3779C410.001 21.4854 410.126 21.6286 410.126 21.8076L410.072 22.0225C409.535 23.3473 409.016 24.8512 408.515 26.5342C408.192 27.6442 407.834 28.7721 407.44 29.918C408.157 28.987 409.123 28.1276 410.341 27.3398C409.052 30.8848 406.814 34.1074 403.627 37.0078C403.412 37.2585 403.269 37.5628 403.197 37.9209C403.161 38.2432 403.126 38.6191 403.09 39.0488C403.09 39.4427 403.036 39.8366 402.929 40.2305C402.821 40.6243 402.571 40.9287 402.177 41.1436C401.282 41.7523 400.422 42.3789 399.599 43.0234C397.414 44.8854 394.747 46.5146 391.596 47.9111C390.593 48.305 390.092 48.8779 390.092 49.6299C390.092 50.0954 390.701 51.6709 391.918 54.3564C392.276 54.1416 392.491 53.9089 392.562 53.6582C392.67 53.4076 392.724 53.1211 392.724 52.7988C392.759 52.4766 392.849 52.1543 392.992 51.832C393.135 51.474 393.511 51.1159 394.12 50.7578C394.192 54.7324 395.176 58.5101 397.074 62.0908C399.008 65.6715 402.41 68.9837 407.279 72.0273C406.885 72.278 406.563 72.4033 406.312 72.4033C405.99 72.4033 405.722 72.3138 405.507 72.1348L405.185 71.9736C404.612 71.723 403.985 71.5977 403.305 71.5977C405.131 73.209 407.799 74.9098 411.308 76.7002C412.31 77.2373 413.223 77.8281 414.047 78.4727C414.906 79.0814 415.837 79.6543 416.84 80.1914H416.894C416.858 80.263 416.804 80.2988 416.732 80.2988C415.837 79.9766 414.906 79.7259 413.939 79.5469C412.973 79.3678 412.006 79.0814 411.039 78.6875L407.44 77.1299C404.289 75.805 401.801 74.6413 399.975 73.6387C399.545 73.4238 399.115 73.1732 398.686 72.8867V72.9404C398.686 73.1195 398.9 73.3164 399.33 73.5312C399.76 73.7461 399.975 73.943 399.975 74.1221C401.443 75.1963 402.965 76.2347 404.54 77.2373C404.647 77.3089 404.701 77.3805 404.701 77.4521V77.5596C404.665 77.6312 404.576 77.6849 404.433 77.7207C404.325 77.7565 404.236 77.7744 404.164 77.7744L403.896 77.7207C400.315 76.1452 396.949 74.2653 393.798 72.0811C393.046 71.7588 392.133 71.5798 391.059 71.5439C390.808 71.4723 390.539 71.1859 390.253 70.6846C390.002 70.3265 389.716 69.9863 389.394 69.6641C384.882 66.1191 381.588 61.7865 379.511 56.666C379.368 56.3438 379.171 56.0931 378.92 55.9141C378.705 55.6992 378.383 55.4844 377.953 55.2695C374.838 56.2005 372.958 57.7044 372.313 59.7812L368.661 71.7588C368.59 72.0094 368.482 72.2422 368.339 72.457C368.196 72.6361 367.927 72.7793 367.533 72.8867C367.104 72.7793 366.835 72.5286 366.728 72.1348C366.728 71.8841 366.566 71.6693 366.244 71.4902C365.743 71.5977 365.349 71.9199 365.062 72.457C364.991 72.6003 364.883 72.7614 364.74 72.9404C364.597 73.1195 364.328 73.209 363.935 73.209H363.666L361.41 75.5186C360.766 76.4137 360.085 77.3268 359.369 78.2578C357.4 80.6569 355.771 83.0918 354.481 85.5625C354.446 85.6341 354.392 85.6699 354.32 85.6699ZM394.496 42.6475C395.714 42.3968 396.859 42.0387 397.934 41.5732C397.54 41.3226 397.307 41.0361 397.235 40.7139C396.376 41.3584 395.463 42.0029 394.496 42.6475ZM383.432 15.3623L383.324 15.0938L383.271 15.3086L383.432 15.3623Z" fill="#FA4454"/>
</svg>
